<svg xmlns="http://www.w3.org/2000/svg" viewBox="-15 -25 45 45">
    <defs><style>
      .lf-body{transform-origin:7.5px 13px;animation:lf-walk 2.4s infinite ease-in-out;}
      .lf-shad{transform-origin:7.5px 15.5px;animation:lf-shadow 2.4s infinite ease-in-out;}
      .lf-eye {transform-origin:7.5px 9px;animation:lf-blink 3s infinite;}
      .lf-arm {transform-origin:14px 9px;animation:lf-armhold 2.4s infinite ease-in-out;}
      .lf-lan {transform-origin:18px -6px;animation:lf-lanswing 2.4s infinite ease-in-out;}
      .lf-glow{animation:lf-glowpulse 2s infinite ease-in-out;}
      .lf-steam{opacity:0;animation:lf-steam 2.5s var(--sd2,0s) infinite ease-in;}
      @keyframes lf-walk{0%,100%{transform:translateY(0) rotate(-1.5deg);}50%{transform:translateY(-.8px) rotate(1.5deg);}}
      @keyframes lf-shadow{0%,100%{transform:scaleX(1);opacity:.5;}50%{transform:scaleX(.92);opacity:.42;}}
      @keyframes lf-blink{0%,45%,55%,100%{transform:scaleY(1);}50%{transform:scaleY(.1);}}
      @keyframes lf-armhold{0%,100%{transform:rotate(-58deg);}50%{transform:rotate(-64deg);}}
      @keyframes lf-lanswing{0%,100%{transform:rotate(4deg);}50%{transform:rotate(-4deg);}}
      @keyframes lf-glowpulse{0%,100%{opacity:.85;}50%{opacity:1;}}
      @keyframes lf-steam{0%{opacity:0;transform:translate(0,0) scaleX(1);}20%{opacity:.7;}100%{opacity:0;transform:translate(var(--tx,1px),-7px) scaleX(.4);}}
    </style></defs>

    <!-- warm glow halo -->
    <circle class="lf-glow" cx="18" cy="-2" r="9" fill="#FF9500" opacity=".12"/>

    <rect class="lf-shad" x="3" y="15" width="9" height="1" fill="#000" opacity=".5"/>

    <!-- bowl of tangyuan (foreground left) -->
    <g transform="translate(-13,9)">
      <g fill="#fff">
        <g class="lf-steam" style="--sd2:0s;--tx:-1px"><rect x="2" y="-1" width=".8" height="2" rx=".4"/></g>
        <g class="lf-steam" style="--sd2:-1.2s;--tx:1px"><rect x="4" y="-1" width=".8" height="2" rx=".4"/></g>
      </g>
      <path d="M0 2 H8 L7 6 Q4 7.5 1 6 Z" fill="#4FC3F7"/>            <!-- bowl -->
      <path d="M0 2 H8 V3 H0 Z" fill="#81D4FA"/>
      <circle cx="2.5" cy="2.4" r="1.3" fill="#FFF8F0"/>             <!-- 汤圆 -->
      <circle cx="5.2" cy="2.4" r="1.3" fill="#FFF8F0"/>
      <circle cx="3.9" cy="3.4" r="1.3" fill="#FFFBF5"/>
      <circle cx="2.2" cy="2" r=".4" fill="#fff"/>
      <circle cx="4.9" cy="2" r=".4" fill="#fff"/>
    </g>

    <g class="lf-body">
      <g fill="#DE886D">
        <rect x="3" y="13" width="1" height="2"/><rect x="5" y="13" width="1" height="2"/>
        <rect x="9" y="13" width="1" height="2"/><rect x="11" y="13" width="1" height="2"/>
      </g>
      <rect x="2" y="6" width="11" height="7" fill="#DE886D"/>
      <rect x="0" y="9" width="2" height="2" fill="#DE886D"/>
      <!-- right arm holds lantern pole -->
      <g class="lf-arm"><rect x="13" y="8" width="2" height="2" fill="#DE886D"/></g>
      <g class="lf-eye" fill="#000"><rect x="4" y="8" width="1" height="2"/><rect x="10" y="8" width="1" height="2"/></g>
    </g>

    <!-- lantern on pole (swings) -->
    <g class="lf-lan">
      <rect x="14" y="-3" width=".6" height="6" fill="#8B5A2B" transform="rotate(28,14,3)"/>
      <g transform="translate(18,-6)">
        <rect x="-2" y="0" width="4" height=".6" fill="#FFC83D"/>
        <rect x="-2.4" y=".6" width="4.8" height="5" fill="#E03030" rx="1.1"/>
        <g class="lf-glow"><rect x="-1.4" y="1" width="3.2" height="4" fill="#FFB347" rx=".8" opacity=".6"/></g>
        <rect x="-2" y="5.6" width="4" height=".6" fill="#FFC83D"/>
        <rect x="-1.2" y="6.2" width=".4" height="2" fill="#FFC83D"/>
        <rect x="-.2" y="6.2" width=".4" height="2.4" fill="#FFC83D"/>
        <rect x=".8" y="6.2" width=".4" height="2" fill="#FFC83D"/>
      </g>
    </g>
    </svg>